# Blender v2.75 (sub 0) OBJ File: 'knife.blend'
# www.blender.org
mtllib knife.mtl
o Plane.000_Plane.002
v 1.004526 0.664825 -0.000000
o Plane.001
v 4.647166 0.559848 -0.000000
v 4.584180 0.628083 -0.000000
v 4.460832 0.664825 -0.000000
v 1.030332 0.664825 -0.000000
v 4.710152 0.478491 -0.000000
v 4.757391 0.391885 -0.000000
v 4.767889 0.305279 -0.000000
v 4.767889 0.187180 -0.000000
v 4.739021 0.105823 -0.000000
v 4.668161 0.019217 -0.000000
v 4.571058 -0.059515 -0.000000
v 4.466081 -0.093633 -0.000000
v 4.368977 -0.106755 -0.000000
v 4.229883 -0.067389 -0.000000
v 4.113971 0.002596 -0.000000
v 3.991498 0.044149 -0.000000
v 3.895269 0.046336 -0.000000
v 3.785918 0.004783 -0.000000
v 3.590006 -0.071405 -0.000000
v 3.274369 -0.153035 -0.000000
v 2.947849 -0.191129 -0.000000
v 2.648539 -0.202013 -0.000000
v 2.474394 -0.212897 -0.000000
v 2.301255 -0.187382 -0.000000
v 2.124471 -0.138174 -0.000000
v 1.859929 -0.081487 -0.000000
v 1.712542 -0.047474 -0.000000
v 1.621842 -0.047474 -0.000000
v 1.561375 -0.070149 -0.000000
v 1.497129 -0.089045 -0.000000
v 1.444221 -0.149512 -0.000000
v 1.376196 -0.247770 -0.000000
v 1.323287 -0.285562 -0.000000
v 1.259041 -0.300678 -0.000000
v 1.183458 -0.300678 -0.000000
v 1.092758 -0.221316 -0.000000
v 1.024733 -0.179745 -0.000000
v 4.647166 0.559848 -0.247350
v 4.584180 0.628083 -0.247350
v 4.460832 0.664825 -0.247350
v 1.030332 0.664825 -0.247350
v 4.710152 0.478491 -0.247350
v 4.757391 0.391885 -0.247350
v 4.767889 0.305279 -0.247350
v 4.767889 0.187180 -0.247350
v 4.739021 0.105823 -0.247350
v 4.668161 0.019217 -0.247350
v 4.571058 -0.059515 -0.247350
v 4.466081 -0.093633 -0.247350
v 4.368977 -0.106755 -0.247350
v 4.229883 -0.067389 -0.247350
v 4.113971 0.002596 -0.247350
v 3.991498 0.044149 -0.247350
v 3.895269 0.046336 -0.247350
v 3.785918 0.004783 -0.247350
v 3.590006 -0.071405 -0.247350
v 3.274369 -0.153035 -0.247350
v 2.947849 -0.191129 -0.247350
v 2.648539 -0.202013 -0.247350
v 2.474394 -0.212897 -0.247350
v 2.301255 -0.187382 -0.247350
v 2.124471 -0.138174 -0.247350
v 1.859929 -0.081487 -0.247350
v 1.712542 -0.047474 -0.247350
v 1.621842 -0.047474 -0.247350
v 1.561375 -0.070149 -0.247350
v 1.497129 -0.089045 -0.247350
v 1.444221 -0.149512 -0.247350
v 1.376196 -0.247770 -0.247350
v 1.323287 -0.285562 -0.247350
v 1.259041 -0.300678 -0.247350
v 1.183458 -0.300678 -0.247350
v 1.092758 -0.221316 -0.247350
v 1.024733 -0.179745 -0.247350
v 0.574733 -0.667411 -0.095947
v -0.654122 -0.604412 -0.095947
v -1.290892 -0.559727 -0.095947
v -1.748919 -0.504801 -0.095947
v -2.162261 -0.464814 -0.095947
v -2.450856 -0.415429 -0.095947
v -2.944260 -0.331644 -0.095947
v -3.344568 -0.257168 -0.095947
v -3.800734 -0.152901 -0.095947
v -4.181098 -0.028192 -0.095947
v -4.530284 0.124577 -0.095947
v -4.826593 0.279623 -0.095947
v -4.697295 0.371210 -0.095947
v -4.347111 0.489733 -0.095947
v -3.934073 0.579524 -0.095947
v -3.588378 0.646867 -0.095947
v -3.251663 0.664825 -0.095947
v 1.028267 -0.179745 -0.095947
v 1.033866 0.664825 -0.095947
v -0.173751 -0.633897 -0.095947
v 1.033866 0.664825 -0.161946
v 1.028267 -0.179745 -0.161946
v -3.251663 0.664825 -0.161946
v -3.588378 0.646867 -0.161946
v -3.934073 0.579524 -0.161946
v -4.347111 0.489733 -0.161946
v -4.697295 0.371210 -0.161946
v -4.826593 0.279623 -0.161946
v -4.530284 0.124577 -0.161946
v -4.181098 -0.028192 -0.161946
v -3.800734 -0.152901 -0.161946
v -3.344568 -0.257168 -0.161946
v -2.944260 -0.331644 -0.161946
v -2.450856 -0.415429 -0.161946
v -2.162261 -0.464814 -0.161946
v -1.748919 -0.504801 -0.161946
v -1.290892 -0.559727 -0.161946
v -0.654122 -0.604412 -0.161946
v -0.173751 -0.633897 -0.161946
v 0.574733 -0.667411 -0.161946
v 0.981864 -0.678333 -0.161946
v 0.981864 -0.268785 -0.161946
v 0.981864 -0.678333 -0.095947
v 0.981864 -0.268785 -0.095947
vn 0.000000 -0.000000 1.000000
vn 0.000000 0.000000 -1.000000
vn 0.026800 0.999600 -0.000000
vn 0.044700 0.999000 0.000000
vn 0.000000 -1.000000 0.000000
vn 0.463600 0.886000 -0.000000
vn 0.578000 -0.816000 0.000000
vn 0.167400 0.985900 -0.000000
vn 0.061300 0.998100 -0.000000
vn -1.000000 0.006600 -0.000000
vn 0.320600 -0.947200 0.000000
vn 0.182900 0.983100 -0.000000
vn 0.222800 0.974900 0.000000
vn 0.070000 0.997500 0.000000
vn -0.886800 0.462200 -0.000000
vn 0.212400 -0.977200 0.000000
vn 0.311600 0.950200 -0.000000
vn 0.119100 0.992900 0.000000
vn 0.096300 0.995400 0.000000
vn -1.000000 0.000000 0.000000
vn 0.191200 -0.981500 -0.000000
vn 0.053300 -0.998600 0.000000
vn 0.400800 0.916200 -0.000000
vn 0.168700 0.985700 0.000000
vn 0.285500 0.958400 -0.000000
vn 1.000000 -0.006600 0.000000
vn 0.351100 -0.936300 0.000000
vn 0.822200 -0.569200 0.000000
vn 0.000000 1.000000 0.000000
vn 0.062400 -0.998100 0.000000
vn -0.272300 -0.962200 0.000000
vn 1.000000 0.000000 0.000000
vn 0.581200 -0.813700 0.000000
vn -0.658500 -0.752600 0.000000
vn 0.355200 -0.934800 0.000000
vn 0.942400 -0.334400 0.000000
vn -0.224900 -0.974400 0.000000
vn 0.309100 -0.951000 0.000000
vn 0.734800 0.678300 -0.000000
vn -0.521400 -0.853300 0.000000
vn 0.752600 -0.658500 0.000000
vn 0.036300 -0.999300 0.000000
vn 0.133900 -0.991000 0.000000
vn -0.321300 -0.947000 0.000000
vn 0.992700 0.120300 -0.000000
vn -0.022700 -0.999700 0.000000
vn -0.209500 -0.977800 0.000000
vn 0.629800 -0.776800 0.000000
vn 0.790700 0.612200 0.000000
vn 0.250400 -0.968100 0.000000
vn 0.282200 -0.959400 0.000000
vn 0.115900 -0.993300 0.000000
vn 0.877900 0.478800 0.000000
vn -0.145800 -0.989300 0.000000
vn -0.516900 -0.856100 0.000000
vn 0.229000 -0.973400 0.000000
vn -0.268200 -0.963400 0.000000
vn 0.362400 -0.932000 0.000000
vn 0.774000 -0.633200 0.000000
usemtl Material
s off
f 97//1 96//1 98//1 99//1 100//1 101//1 102//1 103//1 104//1 105//1 106//1 107//1 108//1 109//1 110//1 111//1 112//1 113//1 114//1 115//1 116//1 117//1
f 93//2 119//2 118//2 76//2 95//2 77//2 78//2 79//2 80//2 81//2 82//2 83//2 84//2 85//2 86//2 87//2 88//2 89//2 90//2 91//2 92//2 94//2
f 116//3 115//3 76//3 118//3
f 115//4 114//4 95//4 76//4
f 98//5 96//5 94//5 92//5
f 104//6 103//6 87//6 86//6
f 103//7 102//7 88//7 87//7
f 109//8 108//8 82//8 81//8
f 114//9 113//9 77//9 95//9
f 96//10 97//10 93//10 94//10
f 102//11 101//11 89//11 88//11
f 108//12 107//12 83//12 82//12
f 107//13 106//13 84//13 83//13
f 113//14 112//14 78//14 77//14
f 97//15 117//15 119//15 93//15
f 101//16 100//16 90//16 89//16
f 106//17 105//17 85//17 84//17
f 112//18 111//18 79//18 78//18
f 111//19 110//19 80//19 79//19
f 117//20 116//20 118//20 119//20
f 100//21 99//21 91//21 90//21
f 99//22 98//22 92//22 91//22
f 105//23 104//23 86//23 85//23
f 110//24 109//24 81//24 80//24
usemtl Material.001
f 4//25 3//25 40//25 41//25
f 5//26 38//26 75//26 42//26
f 29//27 30//27 67//27 66//27
f 32//28 33//28 70//28 69//28
f 5//29 4//29 41//29 42//29
f 23//30 24//30 61//30 60//30
f 14//31 15//31 52//31 51//31
f 8//32 9//32 46//32 45//32
f 33//33 34//33 71//33 70//33
f 36//34 37//34 74//34 73//34
f 18//35 19//35 56//35 55//35
f 9//36 10//36 47//36 46//36
f 27//37 28//37 65//37 64//37
f 12//38 13//38 50//38 49//38
f 3//39 2//39 39//39 40//39
f 37//40 38//40 75//40 74//40
f 31//41 32//41 69//41 68//41
f 22//42 23//42 60//42 59//42
f 13//43 14//43 51//43 50//43
f 16//44 17//44 54//44 53//44
f 7//45 8//45 45//45 44//45
f 35//5 36//5 73//5 72//5
f 17//46 18//46 55//46 54//46
f 26//47 27//47 64//47 63//47
f 11//48 12//48 49//48 48//48
f 2//49 6//49 43//49 39//49
f 20//50 21//50 58//50 57//50
f 30//51 31//51 68//51 67//51
f 21//52 22//52 59//52 58//52
f 6//53 7//53 44//53 43//53
f 24//54 25//54 62//54 61//54
f 15//55 16//55 53//55 52//55
f 34//56 35//56 72//56 71//56
f 25//57 26//57 63//57 62//57
f 28//5 29//5 66//5 65//5
f 19//58 20//58 57//58 56//58
f 10//59 11//59 48//59 47//59
f 2//1 3//1 4//1 5//1 38//1 37//1 36//1 35//1 34//1 33//1 32//1 31//1 30//1 29//1 28//1 27//1 26//1 25//1 24//1 23//1 22//1 21//1 20//1 19//1 18//1 17//1 16//1 15//1 14//1 13//1 12//1 11//1 10//1 9//1 8//1 7//1 6//1
f 39//2 43//2 44//2 45//2 46//2 47//2 48//2 49//2 50//2 51//2 52//2 53//2 54//2 55//2 56//2 57//2 58//2 59//2 60//2 61//2 62//2 63//2 64//2 65//2 66//2 67//2 68//2 69//2 70//2 71//2 72//2 73//2 74//2 75//2 42//2 41//2 40//2
